<svg width="30" height="30" viewBox="0 0 30 30" fill="none" xmlns="http://www.w3.org/2000/svg">
<path d="M28.0572 8.79492H20.597L1.86505 24.3075H9.32157L28.0572 8.79492Z" fill="black"/>
<path d="M26.3069 0H18.732L0 15.5126H7.57494L26.3069 0Z" fill="black"/>
<path d="M30 17.6699H21.9736L13.962 24.3072H21.9884L30 17.6699Z" fill="black"/>
<path d="M4.02244 29.3601C4.07055 29.3601 4.09645 29.3671 4.10386 29.3775C4.11126 29.3879 4.10386 29.4157 4.08165 29.4609L3.88923 29.8987C3.86702 29.9439 3.85222 29.9717 3.83372 29.9821C3.81892 29.9926 3.78562 29.9995 3.73751 29.9995H1.99827C1.95016 29.9995 1.92426 29.9926 1.91686 29.9821C1.90946 29.9717 1.91686 29.9439 1.93906 29.8987L3.20833 26.9484C3.23054 26.9033 3.24534 26.8755 3.26384 26.865C3.27865 26.8546 3.31195 26.8477 3.36006 26.8477H5.05118C5.09929 26.8477 5.1252 26.8546 5.1326 26.865C5.14 26.8755 5.1326 26.9033 5.11039 26.9484L4.91797 27.3828C4.89576 27.428 4.88096 27.4558 4.86246 27.4697C4.84766 27.4801 4.81436 27.4871 4.76625 27.4871H3.79671L3.53768 28.0882H4.4147C4.46281 28.0882 4.49241 28.0952 4.49981 28.1056C4.50721 28.116 4.50351 28.1438 4.48131 28.189L4.28888 28.6234C4.26668 28.6686 4.25188 28.6964 4.23338 28.7103C4.21857 28.7207 4.18527 28.7277 4.13716 28.7277H3.26014L2.98631 29.3636H4.02244V29.3601Z" fill="black"/>
<path d="M7.16418 29.8951C7.14197 29.9402 7.12347 29.968 7.10867 29.9785C7.09387 29.9889 7.06056 29.9958 7.01245 29.9958H6.39817C6.35006 29.9958 6.32416 29.9889 6.31676 29.9785C6.30936 29.968 6.31676 29.9402 6.33897 29.8951L7.3048 27.6537C7.38621 27.4625 7.46022 27.3131 7.52313 27.2054C7.58603 27.0977 7.65634 27.0143 7.74145 26.9587C7.82287 26.9031 7.92648 26.8683 8.0449 26.8509C8.16702 26.837 8.32613 26.8301 8.52596 26.8301H9.12545C9.5399 26.8301 9.74343 26.9586 9.74343 27.2158C9.74343 27.3374 9.70643 27.4799 9.62872 27.6537L8.66288 29.8951C8.64438 29.9402 8.62587 29.968 8.60737 29.9785C8.59257 29.9889 8.55927 29.9958 8.51116 29.9958H7.89688C7.84877 29.9958 7.82286 29.9889 7.81546 29.9785C7.80806 29.968 7.81547 29.9402 7.83767 29.8951L8.21882 29.0124H7.54163L7.16418 29.8951ZM8.48896 28.3765L8.7813 27.6988C8.822 27.5981 8.83681 27.5355 8.8183 27.5112C8.8035 27.4834 8.74429 27.473 8.64068 27.473H8.44085C8.38904 27.473 8.34464 27.4764 8.31134 27.4799C8.27803 27.4834 8.24842 27.4938 8.22622 27.5112C8.20402 27.5286 8.18181 27.5494 8.16331 27.5807C8.14481 27.612 8.12631 27.6502 8.1041 27.6988L7.81546 28.3765H8.48896V28.3765Z" fill="black"/>
<path d="M13.2663 29.3596C13.3144 29.3596 13.3403 29.3665 13.3477 29.3769C13.3551 29.3874 13.3477 29.4152 13.3255 29.4603L13.1405 29.8982C13.1183 29.9434 13.1035 29.9712 13.085 29.9816C13.0702 29.992 13.0369 29.999 12.9888 29.999H11.1311C11.083 29.999 11.0571 29.992 11.0497 29.9816C11.0423 29.9712 11.0497 29.9434 11.0719 29.8982L11.231 29.5194C11.2532 29.4708 11.2791 29.4186 11.3198 29.363C11.3569 29.3074 11.4013 29.2553 11.4494 29.2101L13.2626 27.483H12.2931C12.245 27.483 12.2191 27.4761 12.2117 27.4657C12.2043 27.4552 12.2117 27.4274 12.2339 27.3823L12.4189 26.9514C12.4374 26.9062 12.4522 26.8784 12.4707 26.868C12.4892 26.8575 12.5188 26.8506 12.5669 26.8506H14.3061C14.3543 26.8506 14.3802 26.8575 14.3876 26.868C14.395 26.8784 14.3876 26.9062 14.3654 26.9514L14.2062 27.3232C14.184 27.3718 14.1544 27.424 14.1174 27.4796C14.0804 27.5352 14.036 27.5873 13.9879 27.6325L12.1673 29.3596H13.2663Z" fill="black"/>
<path d="M17.5774 29.3596C17.6255 29.3596 17.6514 29.3665 17.6588 29.3769C17.6662 29.3874 17.6588 29.4152 17.6366 29.4603L17.4516 29.8982C17.4294 29.9434 17.4146 29.9712 17.3961 29.9816C17.3813 29.992 17.348 29.999 17.2999 29.999H15.4422C15.3941 29.999 15.3682 29.992 15.3608 29.9816C15.3534 29.9712 15.3608 29.9434 15.383 29.8982L15.5421 29.5194C15.5643 29.4708 15.5902 29.4186 15.6309 29.363C15.6679 29.3074 15.7124 29.2553 15.7605 29.2101L17.5737 27.483H16.6042C16.5561 27.483 16.5302 27.4761 16.5228 27.4657C16.5154 27.4552 16.5228 27.4274 16.545 27.3823L16.73 26.9514C16.7485 26.9062 16.7633 26.8784 16.7818 26.868C16.8003 26.8575 16.8299 26.8506 16.878 26.8506H18.6172C18.6654 26.8506 18.6913 26.8575 18.6987 26.868C18.7061 26.8784 18.6986 26.9062 18.6764 26.9514L18.5173 27.3232C18.4951 27.3718 18.4655 27.424 18.4285 27.4796C18.3915 27.5352 18.3471 27.5873 18.299 27.6325L16.4784 29.3596H17.5774Z" fill="black"/>
<path d="M21.8626 29.3601C21.9107 29.3601 21.9403 29.3671 21.944 29.3775C21.9514 29.3879 21.944 29.4157 21.9218 29.4609L21.7368 29.8987C21.7146 29.9439 21.6998 29.9717 21.6813 29.9821C21.6665 29.9926 21.6332 29.9995 21.585 29.9995H19.9494C19.9013 29.9995 19.8754 29.9926 19.868 29.9821C19.8606 29.9717 19.868 29.9439 19.8902 29.8987L21.1595 26.9484C21.1817 26.9033 21.1965 26.8755 21.215 26.865C21.2298 26.8546 21.2631 26.8477 21.3112 26.8477H21.9255C21.9736 26.8477 21.9995 26.8546 22.0069 26.865C22.0143 26.8755 22.0069 26.9033 21.9847 26.9484L20.9486 29.3601H21.8626Z" fill="black"/>
</svg>
