<?xml version="1.0" encoding="utf-8"?>
<!-- Generator: Adobe Illustrator 26.0.1, SVG Export Plug-In . SVG Version: 6.00 Build 0)  -->
<svg version="1.1" id="Layer_1" xmlns="http://www.w3.org/2000/svg" xmlns:xlink="http://www.w3.org/1999/xlink" x="0px" y="0px"
	 viewBox="0 0 595.28 841.89" style="enable-background:new 0 0 595.28 841.89;" xml:space="preserve">
<g>
	<g>
		<polygon points="301.71,341.99 281.55,341.99 230.93,386.63 251.08,386.63 		"/>
		<polygon points="296.98,316.68 276.51,316.68 225.89,361.32 246.36,361.32 		"/>
		<g>
			<polygon points="306.96,367.53 285.27,367.53 263.62,386.63 285.31,386.63 			"/>
		</g>
	</g>
	<g>
		<path d="M236.76,401.17c0.13,0,0.2,0.02,0.22,0.05c0.02,0.03,0,0.11-0.06,0.24l-0.52,1.26c-0.06,0.13-0.1,0.21-0.15,0.24
			c-0.04,0.03-0.13,0.05-0.26,0.05h-4.7c-0.13,0-0.2-0.02-0.22-0.05s0-0.11,0.06-0.24l3.43-8.49c0.06-0.13,0.1-0.21,0.15-0.24
			c0.04-0.03,0.13-0.05,0.26-0.05h4.57c0.13,0,0.2,0.02,0.22,0.05c0.02,0.03,0,0.11-0.06,0.24l-0.52,1.25
			c-0.06,0.13-0.1,0.21-0.15,0.25c-0.04,0.03-0.13,0.05-0.26,0.05h-2.62l-0.7,1.73h2.37c0.13,0,0.21,0.02,0.23,0.05
			c0.02,0.03,0.01,0.11-0.05,0.24l-0.52,1.25c-0.06,0.13-0.1,0.21-0.15,0.25c-0.04,0.03-0.13,0.05-0.26,0.05h-2.37l-0.74,1.83
			H236.76z"/>
		<path d="M245.25,402.71c-0.06,0.13-0.11,0.21-0.15,0.24c-0.04,0.03-0.13,0.05-0.26,0.05h-1.66c-0.13,0-0.2-0.02-0.22-0.05
			s0-0.11,0.06-0.24l2.61-6.45c0.22-0.55,0.42-0.98,0.59-1.29c0.17-0.31,0.36-0.55,0.59-0.71c0.22-0.16,0.5-0.26,0.82-0.31
			c0.33-0.04,0.76-0.06,1.3-0.06h1.62c1.12,0,1.67,0.37,1.67,1.11c0,0.35-0.1,0.76-0.31,1.26l-2.61,6.45
			c-0.05,0.13-0.1,0.21-0.15,0.24c-0.04,0.03-0.13,0.05-0.26,0.05h-1.66c-0.13,0-0.2-0.02-0.22-0.05s0-0.11,0.06-0.24l1.03-2.54
			h-1.83L245.25,402.71z M248.83,398.34l0.79-1.95c0.11-0.29,0.15-0.47,0.1-0.54c-0.04-0.08-0.2-0.11-0.48-0.11h-0.54
			c-0.14,0-0.26,0.01-0.35,0.02c-0.09,0.01-0.17,0.04-0.23,0.09c-0.06,0.05-0.12,0.11-0.17,0.2c-0.05,0.09-0.1,0.2-0.16,0.34
			l-0.78,1.95H248.83z"/>
		<path d="M261.74,401.17c0.13,0,0.2,0.02,0.22,0.05c0.02,0.03,0,0.11-0.06,0.24l-0.5,1.26c-0.06,0.13-0.1,0.21-0.15,0.24
			c-0.04,0.03-0.13,0.05-0.26,0.05h-5.02c-0.13,0-0.2-0.02-0.22-0.05s0-0.11,0.06-0.24l0.43-1.09c0.06-0.14,0.13-0.29,0.24-0.45
			c0.1-0.16,0.22-0.31,0.35-0.44l4.9-4.97h-2.62c-0.13,0-0.2-0.02-0.22-0.05c-0.02-0.03,0-0.11,0.06-0.24l0.5-1.24
			c0.05-0.13,0.09-0.21,0.14-0.24c0.05-0.03,0.13-0.05,0.26-0.05h4.7c0.13,0,0.2,0.02,0.22,0.05c0.02,0.03,0,0.11-0.06,0.24
			l-0.43,1.07c-0.06,0.14-0.14,0.29-0.24,0.45c-0.1,0.16-0.22,0.31-0.35,0.44l-4.92,4.97H261.74z"/>
		<path d="M273.39,401.17c0.13,0,0.2,0.02,0.22,0.05c0.02,0.03,0,0.11-0.06,0.24l-0.5,1.26c-0.06,0.13-0.1,0.21-0.15,0.24
			c-0.04,0.03-0.13,0.05-0.26,0.05h-5.02c-0.13,0-0.2-0.02-0.22-0.05s0-0.11,0.06-0.24l0.43-1.09c0.06-0.14,0.13-0.29,0.24-0.45
			c0.1-0.16,0.22-0.31,0.35-0.44l4.9-4.97h-2.62c-0.13,0-0.2-0.02-0.22-0.05c-0.02-0.03,0-0.11,0.06-0.24l0.5-1.24
			c0.05-0.13,0.09-0.21,0.14-0.24c0.05-0.03,0.13-0.05,0.26-0.05h4.7c0.13,0,0.2,0.02,0.22,0.05c0.02,0.03,0,0.11-0.06,0.24
			l-0.43,1.07c-0.06,0.14-0.14,0.29-0.24,0.45c-0.1,0.16-0.22,0.31-0.35,0.44l-4.92,4.97H273.39z"/>
		<path d="M284.97,401.17c0.13,0,0.21,0.02,0.22,0.05c0.02,0.03,0,0.11-0.06,0.24l-0.5,1.26c-0.06,0.13-0.1,0.21-0.15,0.24
			c-0.04,0.03-0.13,0.05-0.26,0.05h-4.42c-0.13,0-0.2-0.02-0.22-0.05s0-0.11,0.06-0.24l3.43-8.49c0.06-0.13,0.1-0.21,0.15-0.24
			c0.04-0.03,0.13-0.05,0.26-0.05h1.66c0.13,0,0.2,0.02,0.22,0.05c0.02,0.03,0,0.11-0.06,0.24l-2.8,6.94H284.97z"/>
	</g>
</g>
</svg>
