<svg width="90" height="90" viewBox="0 0 90 90" fill="none" xmlns="http://www.w3.org/2000/svg">
<path d="M84.1717 26.3857H61.791L5.59515 72.9245H27.9647L84.1717 26.3857Z" fill="black"/>
<path d="M78.9207 0H56.1959L0 46.5388H22.7248L78.9207 0Z" fill="black"/>
<path d="M90 53.0107H65.9208L41.886 72.9232H65.9652L90 53.0107Z" fill="black"/>
<path d="M12.0673 88.0825C12.2117 88.0825 12.2894 88.1033 12.3116 88.1346C12.3338 88.1659 12.3116 88.2492 12.245 88.3848L11.6677 89.6984C11.6011 89.8339 11.5567 89.9173 11.5012 89.9486C11.4568 89.9799 11.3568 90.0007 11.2125 90.0007H5.9948C5.85048 90.0007 5.77279 89.9799 5.75058 89.9486C5.72838 89.9173 5.75058 89.8339 5.81719 89.6984L9.625 80.8473C9.69161 80.7117 9.73603 80.6283 9.79153 80.597C9.83594 80.5658 9.93585 80.5449 10.0802 80.5449H15.1536C15.2979 80.5449 15.3756 80.5658 15.3978 80.597C15.42 80.6283 15.3978 80.7117 15.3312 80.8473L14.7539 82.1504C14.6873 82.286 14.6429 82.3694 14.5874 82.4111C14.543 82.4423 14.4431 82.4632 14.2987 82.4632H11.3901L10.613 84.2668H13.2441C13.3884 84.2668 13.4772 84.2876 13.4994 84.3189C13.5216 84.3502 13.5105 84.4336 13.4439 84.5691L12.8666 85.8723C12.8 86.0078 12.7556 86.0912 12.7001 86.1329C12.6557 86.1642 12.5558 86.185 12.4115 86.185H9.78042L8.95892 88.0929H12.0673V88.0825Z" fill="black"/>
<path d="M21.4925 89.6873C21.4259 89.8229 21.3704 89.9063 21.326 89.9376C21.2816 89.9688 21.1817 89.9897 21.0374 89.9897H19.1945C19.0502 89.9897 18.9725 89.9688 18.9503 89.9376C18.9281 89.9063 18.9503 89.8229 19.0169 89.6873L21.9144 82.963C22.1586 82.3896 22.3807 81.9413 22.5694 81.6181C22.7581 81.2949 22.969 81.0447 23.2244 80.8779C23.4686 80.7111 23.7794 80.6069 24.1347 80.5547C24.501 80.513 24.9784 80.4922 25.5779 80.4922H27.3763C28.6197 80.4922 29.2303 80.8779 29.2303 81.6494C29.2303 82.0143 29.1193 82.4417 28.8861 82.963L25.9886 89.6873C25.9331 89.8229 25.8776 89.9063 25.8221 89.9376C25.7777 89.9688 25.6778 89.9897 25.5335 89.9897H23.6906C23.5463 89.9897 23.4686 89.9688 23.4464 89.9376C23.4242 89.9063 23.4464 89.8229 23.513 89.6873L24.6565 87.0393H22.6249L21.4925 89.6873ZM25.4669 85.1314L26.3439 83.0985C26.466 82.7962 26.5104 82.6085 26.4549 82.5355C26.4105 82.4521 26.2329 82.4209 25.922 82.4209H25.3225C25.1671 82.4209 25.0339 82.4313 24.934 82.4417C24.8341 82.4521 24.7453 82.4834 24.6787 82.5355C24.6121 82.5877 24.5454 82.6502 24.4899 82.744C24.4344 82.8379 24.3789 82.9526 24.3123 83.0985L23.4464 85.1314H25.4669V85.1314Z" fill="black"/>
<path d="M39.7989 88.0808C39.9432 88.0808 40.021 88.1017 40.0432 88.1329C40.0654 88.1642 40.0432 88.2476 39.9766 88.3831L39.4215 89.6967C39.3549 89.8323 39.3105 89.9157 39.255 89.9469C39.2106 89.9782 39.1106 89.9991 38.9663 89.9991H33.3934C33.249 89.9991 33.1713 89.9782 33.1491 89.9469C33.1269 89.9157 33.1491 89.8323 33.2157 89.6967L33.6931 88.5604C33.7597 88.4144 33.8374 88.258 33.9595 88.0912C34.0706 87.9244 34.2038 87.768 34.3481 87.6325L39.7878 82.4511H36.8792C36.7349 82.4511 36.6572 82.4303 36.635 82.399C36.6128 82.3677 36.635 82.2843 36.7016 82.1488L37.2567 80.856C37.3122 80.7205 37.3566 80.6371 37.4121 80.6058C37.4676 80.5745 37.5564 80.5537 37.7008 80.5537H42.9184C43.0628 80.5537 43.1405 80.5745 43.1627 80.6058C43.1849 80.6371 43.1627 80.7205 43.0961 80.856L42.6187 81.9715C42.5521 82.1175 42.4633 82.2739 42.3523 82.4407C42.2413 82.6075 42.1081 82.7639 41.9637 82.8994L36.5018 88.0808H39.7989Z" fill="black"/>
<path d="M52.7322 88.0808C52.8765 88.0808 52.9542 88.1017 52.9764 88.1329C52.9986 88.1642 52.9764 88.2476 52.9098 88.3831L52.3547 89.6967C52.2881 89.8323 52.2437 89.9157 52.1882 89.9469C52.1438 89.9782 52.0439 89.9991 51.8996 89.9991H46.3266C46.1823 89.9991 46.1046 89.9782 46.0824 89.9469C46.0602 89.9157 46.0824 89.8323 46.149 89.6967L46.6264 88.5604C46.693 88.4144 46.7707 88.258 46.8928 88.0912C47.0038 87.9244 47.1371 87.768 47.2814 87.6325L52.7211 82.4511H49.8125C49.6682 82.4511 49.5905 82.4303 49.5683 82.399C49.5461 82.3677 49.5683 82.2843 49.6349 82.1488L50.19 80.856C50.2455 80.7205 50.2899 80.6371 50.3454 80.6058C50.4009 80.5745 50.4897 80.5537 50.634 80.5537H55.8517C55.9961 80.5537 56.0738 80.5745 56.096 80.6058C56.1182 80.6371 56.0959 80.7205 56.0293 80.856L55.552 81.9715C55.4854 82.1175 55.3966 82.2739 55.2856 82.4407C55.1745 82.6075 55.0413 82.7639 54.897 82.8994L49.4351 88.0808H52.7322Z" fill="black"/>
<path d="M65.5878 88.0825C65.7321 88.0825 65.8209 88.1033 65.832 88.1346C65.8542 88.1659 65.832 88.2492 65.7654 88.3848L65.2103 89.6984C65.1437 89.8339 65.0993 89.9173 65.0438 89.9486C64.9994 89.9799 64.8995 90.0007 64.7551 90.0007H59.8483C59.7039 90.0007 59.6262 89.9799 59.604 89.9486C59.5818 89.9173 59.6041 89.8339 59.6707 89.6984L63.4785 80.8473C63.5451 80.7117 63.5895 80.6283 63.645 80.597C63.6894 80.5658 63.7893 80.5449 63.9336 80.5449H65.7765C65.9208 80.5449 65.9985 80.5658 66.0207 80.597C66.0429 80.6283 66.0207 80.7117 65.9541 80.8473L62.8457 88.0825H65.5878Z" fill="black"/>
</svg>
